HIERARCHY
ROOT joint_Root
{
	OFFSET 0.0 0.0 0.0
	CHANNELS 6 Xposition Yposition Zposition Zrotation Xrotation Yrotation 
	JOINT Hips
	{
		OFFSET 4.5925 91.4895 -427.239
		CHANNELS 6 Xposition Yposition Zposition Zrotation Xrotation Yrotation 
		JOINT Spine
		{
			OFFSET 15.7357 0.0 0.0
			CHANNELS 6 Xposition Yposition Zposition Zrotation Xrotation Yrotation 
			JOINT Chest
			{
				OFFSET 8.98455 -0.406207 0.0
				CHANNELS 6 Xposition Yposition Zposition Zrotation Xrotation Yrotation 
				JOINT Neck
				{
					OFFSET 16.3773 0.0 0.0
					CHANNELS 6 Xposition Yposition Zposition Zrotation Xrotation Yrotation 
					JOINT Head
					{
						OFFSET 6.45672 0.0 0.0
						CHANNELS 6 Xposition Yposition Zposition Zrotation Xrotation Yrotation 
						End Site
						{
							OFFSET 0.0 0.0 0.0
						}
					}
				}
				JOINT Shoulder_L
				{
					OFFSET 12.9942 -0.242716 4.98039
					CHANNELS 6 Xposition Yposition Zposition Zrotation Xrotation Yrotation 
					JOINT UpperArm_L
					{
						OFFSET 5.34809 0.0 0.0
						CHANNELS 6 Xposition Yposition Zposition Zrotation Xrotation Yrotation 
						JOINT LowerArm_L
						{
							OFFSET 24.3286 1.87007e-05 0.0
							CHANNELS 6 Xposition Yposition Zposition Zrotation Xrotation Yrotation 
							JOINT Hand_L
							{
								OFFSET 22.2916 0.0 0.0
								CHANNELS 6 Xposition Yposition Zposition Zrotation Xrotation Yrotation 
								End Site
								{
									OFFSET 0.0 0.0 0.0
								}
							}
						}
					}
				}
				JOINT Shoulder_R
				{
					OFFSET 12.9945 -0.242716 -4.98039
					CHANNELS 6 Xposition Yposition Zposition Zrotation Xrotation Yrotation 
					JOINT UpperArm_R
					{
						OFFSET -5.34813 0.0 0.0
						CHANNELS 6 Xposition Yposition Zposition Zrotation Xrotation Yrotation 
						JOINT LowerArm_R
						{
							OFFSET -24.3289 0.000322201 0.0
							CHANNELS 6 Xposition Yposition Zposition Zrotation Xrotation Yrotation 
							JOINT Hand_R
							{
								OFFSET -22.2915 -0.000108084 0.0
								CHANNELS 6 Xposition Yposition Zposition Zrotation Xrotation Yrotation 
								End Site
								{
									OFFSET 0.0 0.0 0.0
								}
							}
						}
					}
				}
			}
		}
		JOINT UpperLeg_L
		{
			OFFSET -2.19248 -6.46944 0.0
			CHANNELS 6 Xposition Yposition Zposition Zrotation Xrotation Yrotation 
			JOINT LowerLeg_L
			{
				OFFSET 39.0811 0.0 -1.23785e-05
				CHANNELS 6 Xposition Yposition Zposition Zrotation Xrotation Yrotation 
				JOINT Foot_L
				{
					OFFSET 40.9854 0.0 -1.26872e-05
					CHANNELS 6 Xposition Yposition Zposition Zrotation Xrotation Yrotation 
					JOINT Toes_L
					{
						OFFSET 11.7543 0.0 0.0
						CHANNELS 6 Xposition Yposition Zposition Zrotation Xrotation Yrotation 
						End Site
						{
							OFFSET 0.0 0.0 0.0
						}
					}
				}
			}
		}
		JOINT UpperLeg_R
		{
			OFFSET -2.19251 6.46944 0.0
			CHANNELS 6 Xposition Yposition Zposition Zrotation Xrotation Yrotation 
			JOINT LowerLeg_R
			{
				OFFSET -39.0811 -0.00228153 -0.0401928
				CHANNELS 6 Xposition Yposition Zposition Zrotation Xrotation Yrotation 
				JOINT Foot_R
				{
					OFFSET -40.9854 0.0 0.0
					CHANNELS 6 Xposition Yposition Zposition Zrotation Xrotation Yrotation 
					JOINT Toes_R
					{
						OFFSET -11.7543 0.0 0.0
						CHANNELS 6 Xposition Yposition Zposition Zrotation Xrotation Yrotation 
						End Site
						{
							OFFSET 0.0 0.0 0.0
						}
					}
				}
			}
		}
	}
}
MOTION
Frames:	6
Frame Time:	0.0333333
0.000000 0.000000 0.000000 0.000000 0.000000 -0.000000 0.392496 84.195400 -1.311630 89.966900 -7.111370 7.828850 15.735700 0.000005 -0.000001 89.770000 81.648000 -89.853000 8.984550 -0.406207 -0.000000 8.937700 -0.067551 -0.160579 16.377300 -0.000001 -0.000001 -2.711820 -1.949940 1.351410 6.456720 -0.000001 -0.000000 -0.206554 -1.488310 5.725060 12.994200 -0.242716 4.980390 -91.418300 5.899810 -76.456700 5.348090 -0.000007 -0.000001 -66.458300 16.667600 -11.971300 24.328600 0.000019 0.000005 9.117600 14.985100 -31.825200 22.291600 -0.000001 0.000005 8.442430 5.316690 -0.406103 12.994500 -0.242716 -4.980390 88.637100 9.782570 -82.029000 -5.348130 -0.000001 -0.000004 -57.899900 34.987700 -10.333000 -24.328900 0.000322 -0.000009 1.377960 2.128720 -32.959600 -22.291500 -0.000108 -0.000004 19.333600 5.491250 -6.183800 -2.192480 -6.469440 -0.000000 -175.257000 -17.280100 -14.872200 39.081100 -0.000007 -0.000012 -0.416482 0.278021 56.276100 40.985400 -0.000006 -0.000013 2.292300 5.477030 -83.187900 11.754300 -0.000000 0.000003 -0.000613 -0.004719 -16.748600 -2.192510 6.469440 -0.000001 175.485000 12.319000 163.631000 -39.081100 -0.002282 -0.040193 0.064127 -0.039379 57.116800 -40.985400 0.000008 0.000006 7.033980 7.504030 -82.835300 -11.754300 -0.000006 -0.000006 -0.750378 -0.925394 -16.870600
0.000000 0.000000 0.000000 0.000000 0.000000 -0.000000 0.615305 84.871900 -0.629175 90.779200 -8.076840 8.668820 15.735700 0.000005 -0.000001 89.606000 81.967500 -89.229200 8.984550 -0.406207 -0.000000 8.299160 -0.108213 0.760749 16.377300 -0.000001 -0.000001 -1.080030 -1.681910 1.171760 6.456720 -0.000001 -0.000000 1.626400 -0.755302 4.068550 12.994200 -0.242716 4.980390 -91.283900 5.243150 -76.220300 5.348090 -0.000007 -0.000001 -61.431100 13.524000 -17.057900 24.328600 0.000019 0.000005 10.429100 14.332000 -36.634000 22.291600 -0.000001 0.000005 5.692620 5.337820 -1.015130 12.994500 -0.242716 -4.980390 88.599700 9.511090 -81.585000 -5.348130 -0.000001 -0.000004 -60.285700 31.459200 -8.618930 -24.328900 0.000322 -0.000009 2.076790 3.519070 -30.584100 -22.291500 -0.000108 -0.000004 19.619800 5.447610 -4.556020 -2.192480 -6.469440 -0.000000 -175.854000 -17.858400 -12.117400 39.081100 -0.000007 -0.000012 -0.392604 0.288873 53.655800 40.985400 -0.000006 -0.000013 2.121040 5.136270 -82.515800 11.754300 -0.000000 0.000003 -0.000645 -0.004924 -16.755600 -2.192510 6.469440 -0.000001 174.183000 11.915000 165.652000 -39.081100 -0.002282 -0.040193 0.057479 -0.037618 55.263400 -40.985400 0.000008 0.000006 7.077280 8.356390 -82.153600 -11.754300 -0.000006 -0.000006 -0.868365 -1.072060 -16.979300
0.000000 0.000000 0.000000 0.000000 0.000000 -0.000000 0.671907 86.334200 0.123274 91.222600 -8.145530 9.134630 15.735700 0.000005 -0.000001 86.971700 82.560900 -85.942600 8.984550 -0.406207 -0.000000 7.099840 -0.789214 2.105020 16.377300 -0.000001 -0.000001 1.142370 -1.318360 0.769851 6.456720 -0.000001 -0.000000 3.653490 0.324211 2.279120 12.994200 -0.242716 4.980390 -90.928400 3.768100 -76.148600 5.348090 -0.000007 -0.000001 -53.512200 9.272190 -24.115400 24.328600 0.000019 0.000005 10.990600 12.524700 -41.847500 22.291600 -0.000001 0.000005 4.678780 5.348580 -1.335090 12.994500 -0.242716 -4.980390 88.461300 9.301890 -80.564200 -5.348130 -0.000001 -0.000004 -61.539800 29.905000 -7.201160 -24.328900 0.000322 -0.000009 0.626619 1.199510 -27.609500 -22.291500 -0.000108 -0.000004 19.989500 5.442490 -4.373350 -2.192480 -6.469440 -0.000000 -176.408000 -17.036200 -8.554480 39.081100 -0.000007 -0.000012 -0.357607 0.317843 48.369900 40.985400 -0.000006 -0.000013 1.527580 4.371770 -80.411500 11.754300 -0.000000 0.000003 -0.000575 -0.004474 -16.740200 -2.192510 6.469440 -0.000001 173.345000 12.181600 169.007000 -39.081100 -0.002282 -0.040193 0.047929 -0.036807 50.521100 -40.985400 0.000008 0.000006 6.812820 9.111530 -80.300600 -11.754300 -0.000006 -0.000006 -0.771511 -0.949086 -17.109700
0.000000 0.000000 0.000000 0.000000 0.000000 -0.000000 0.532490 87.983700 0.725878 91.143700 -7.346270 8.893090 15.735700 0.000005 -0.000001 81.406500 83.326200 -79.604100 8.984550 -0.406207 -0.000000 5.468880 -2.025930 3.697860 16.377300 -0.000001 -0.000001 3.405490 -1.476920 0.400103 6.456720 -0.000001 -0.000000 5.237100 0.794949 0.720836 12.994200 -0.242716 4.980390 -90.442900 1.814730 -76.283800 5.348090 -0.000007 -0.000001 -43.976100 1.283630 -31.368600 24.328600 0.000019 0.000005 10.965800 9.805610 -48.693000 22.291600 -0.000001 0.000005 4.547650 5.356610 -1.575060 12.994500 -0.242716 -4.980390 88.317700 8.785320 -79.114900 -5.348130 -0.000001 -0.000004 -62.089900 29.483000 -5.419630 -24.328900 0.000322 -0.000009 0.146295 0.297861 -26.317400 -22.291500 -0.000108 -0.000004 18.698400 5.445820 -4.489070 -2.192480 -6.469440 -0.000000 -176.583000 -15.676200 -5.348040 39.081100 -0.000007 -0.000012 -0.308220 0.341650 42.055800 40.985400 -0.000006 -0.000013 1.028490 4.071190 -77.599000 11.754300 -0.000000 0.000003 -0.000440 -0.003581 -16.709100 -2.192510 6.469440 -0.000001 173.281000 13.161200 172.440000 -39.081100 -0.002282 -0.040193 0.039303 -0.036758 44.432700 -40.985400 0.000008 0.000006 6.569990 9.523290 -77.789000 -11.754300 -0.000006 -0.000006 -0.615891 -0.755893 -17.242300
0.000000 0.000000 0.000000 0.000000 0.000000 -0.000000 0.250081 89.330100 1.227430 90.934500 -6.788900 8.115280 15.735700 0.000005 -0.000001 75.401800 84.165400 -72.939800 8.984550 -0.406207 -0.000000 3.600470 -3.026800 5.014690 16.377300 -0.000001 -0.000001 5.174010 -2.246160 0.309363 6.456720 -0.000001 -0.000000 6.443420 0.390679 -0.000330 12.994200 -0.242716 4.980390 -89.883400 -0.513666 -77.192000 5.348090 -0.000007 -0.000001 -34.005400 -11.119000 -36.793500 24.328600 0.000019 0.000005 8.468850 5.848260 -55.624800 22.291600 -0.000001 0.000005 7.630560 5.379440 -2.277660 12.994500 -0.242716 -4.980390 88.197300 8.343120 -77.761200 -5.348130 -0.000001 -0.000004 -61.854000 29.667800 -2.662100 -24.328900 0.000322 -0.000009 0.722442 1.394440 -27.424400 -22.291500 -0.000108 -0.000004 17.306500 5.440410 -4.300590 -2.192480 -6.469440 -0.000000 -176.394000 -15.343700 -2.921860 39.081100 -0.000007 -0.000012 -0.245982 0.335854 36.219700 40.985400 -0.000006 -0.000013 0.682208 4.437980 -74.926500 11.754300 -0.000000 0.000003 -0.000313 -0.002693 -16.677700 -2.192510 6.469440 -0.000001 173.636000 13.977800 175.115000 -39.081100 -0.002282 -0.040193 0.030088 -0.033582 38.597500 -40.985400 0.000008 0.000006 6.278230 9.916870 -75.515900 -11.754300 -0.000006 -0.000006 -0.481445 -0.591679 -17.160600
0.000000 0.000000 0.000000 0.000000 0.000000 -0.000000 -0.057529 90.192300 1.621030 90.659300 -7.017740 6.998670 15.735700 0.000005 -0.000001 68.293200 84.821500 -65.330000 8.984550 -0.406207 -0.000000 1.971060 -3.977900 5.991230 16.377300 -0.000001 -0.000001 5.975850 -2.647750 0.461579 6.456720 -0.000001 -0.000000 6.940730 -0.253845 0.065740 12.994200 -0.242716 4.980390 -89.181700 -3.791760 -77.813300 5.348090 -0.000007 -0.000001 -28.284800 -28.198700 -41.333500 24.328600 0.000019 0.000005 4.973230 2.914900 -59.701000 22.291600 -0.000001 0.000005 11.389400 5.403900 -3.060260 12.994500 -0.242716 -4.980390 88.059600 8.424560 -76.979700 -5.348130 -0.000001 -0.000004 -60.341700 30.979800 -0.208483 -24.328900 0.000322 -0.000009 0.750006 1.332370 -29.416200 -22.291500 -0.000108 -0.000004 16.996300 5.450690 -4.663760 -2.192480 -6.469440 -0.000000 -175.821000 -16.617300 -1.504500 39.081100 -0.000007 -0.000012 -0.193263 0.309997 31.941200 40.985400 -0.000006 -0.000013 0.579305 5.701370 -73.025200 11.754300 -0.000000 0.000003 -0.000216 -0.001974 -16.651800 -2.192510 6.469440 -0.000001 174.059000 15.120700 176.633000 -39.081100 -0.002282 -0.040193 0.022827 -0.028863 34.089400 -40.985400 0.000008 0.000006 6.478210 11.239200 -74.116400 -11.754300 -0.000006 -0.000006 -0.243212 -0.300850 -16.951900
